<?xml version="1.0" encoding="utf-8"?>
<svg viewBox="90.515 82.405 177.057 174.938" xmlns="http://www.w3.org/2000/svg">
  <g clip-path="url(#5dd211b421)">
    <path fill="#888888" d="M 93.710938 170.167969 C 93.710938 123.203125 131.921875 84.992188 178.890625 84.992188 C 185.023438 84.992188 190 89.96875 190 96.105469 C 190 102.242188 185.023438 107.214844 178.890625 107.214844 C 144.175781 107.214844 115.933594 135.460938 115.933594 170.171875 C 115.933594 204.886719 144.175781 233.128906 178.890625 233.128906 C 185.023438 233.128906 190 238.105469 190 244.242188 C 190 250.378906 185.023438 255.351562 178.890625 255.351562 C 131.921875 255.347656 93.710938 217.132812 93.710938 170.167969 Z M 93.710938 170.167969 " fill-opacity="1" fill-rule="nonzero"/>
  </g>
  <g clip-path="url(#e8d0a95282)">
    <path fill="#00bf63" d="M 149.171875 114.539062 C 149.171875 110.054688 150.199219 105.539062 152.285156 101.328125 C 157.246094 91.316406 167.261719 85.054688 178.414062 84.992188 L 178.886719 84.992188 C 201.859375 84.992188 223.394531 94.003906 239.527344 110.355469 C 255.660156 126.710938 264.367188 148.386719 264.050781 171.363281 C 263.75 193.375 255 214.1875 239.417969 229.964844 C 223.835938 245.742188 203.132812 254.75 181.125 255.316406 C 180.671875 255.324219 180.222656 255.335938 179.773438 255.339844 C 168.351562 255.457031 158.046875 249.234375 152.875 239.109375 C 147.652344 228.894531 148.667969 216.78125 155.511719 207.507812 C 163.535156 196.636719 167.773438 183.726562 167.773438 170.167969 C 167.773438 156.394531 163.410156 143.320312 155.15625 132.351562 C 151.199219 127.085938 149.171875 120.84375 149.171875 114.539062 Z M 241.847656 170.167969 C 241.847656 153.503906 235.429688 137.835938 223.710938 125.960938 C 211.789062 113.871094 195.871094 107.214844 178.890625 107.214844 L 178.535156 107.214844 C 174.582031 107.234375 172.78125 110.003906 172.191406 111.195312 C 171.574219 112.4375 170.414062 115.675781 172.910156 118.992188 C 184.085938 133.84375 189.992188 151.539062 189.992188 170.167969 C 189.992188 188.511719 184.25 205.984375 173.390625 220.703125 C 170.738281 224.292969 171.996094 227.699219 172.660156 229 C 173.300781 230.257812 175.257812 233.167969 179.539062 233.121094 C 179.875 233.121094 180.214844 233.113281 180.558594 233.105469 C 196.792969 232.6875 212.082031 226.027344 223.613281 214.355469 C 235.140625 202.683594 241.613281 187.308594 241.835938 171.058594 C 241.84375 170.761719 241.847656 170.460938 241.847656 170.167969 Z M 241.847656 170.167969 " fill-opacity="1" fill-rule="nonzero"/>
  </g>
</svg>